# xmcd CD database file
#
# Track frame offsets:
#	150
#	40006
#	62958
#	108963
#	135251
#
# Disc length: 2391 seconds
#
# Revision: 0
# Processed by: cddbd v1.5.2PL0 Copyright (c) Steve Scherf et al.
# Submitted via: CDex 1.78
#
DISCID=39095505
DTITLE=Bengali Bauls - At Big Pink
DYEAR=1969
DGENRE=India overig
TTITLE0=Alone, I Have Caught A Fish
TTITLE1=Praise My Beautiful Birthland
TTITLE2=With What Flower Shall I Worship Your Feet
TTITLE3=My Boatman Friend
TTITLE4=Say Hari, Mynah Bird
EXTD=YEAR: 1969
EXTT0=
EXTT1=
EXTT2=
EXTT3=
EXTT4=
PLAYORDER=
